<svg xmlns="http://www.w3.org/2000/svg" xmlns:xlink="http://www.w3.org/1999/xlink" viewBox="0 0 542.68 542.78"><defs><style>.a,.c,.e{fill:none;}.b{clip-path:url(#a);}.c{stroke:#d1d3d4;stroke-width:2.18px;}.c,.e{stroke-miterlimit:10;}.d{fill:#d1d3d4;}.e{stroke:#ec008c;stroke-width:0.5px;}</style><clipPath id="a" transform="translate(-0.01 0.09)"><rect class="a" width="542.7" height="542.7"/></clipPath></defs><title>puzzle_bg_rotate</title><g class="b"><path class="c" d="M317.6,346.4a17.71,17.71,0,0,1,4.9,1c1.6.6,2.9-.2,2.9-1.9V325.4h20.1c1.7,0,2.5-1.2,1.9-2.9a18.43,18.43,0,0,1-1-4.9,6,6,0,0,1,12,0,17.71,17.71,0,0,1-1,4.9c-.6,1.6.2,2.9,1.9,2.9h20.1v20.1c0,1.7,1.2,2.5,2.9,1.9a18.43,18.43,0,0,1,4.9-1,6,6,0,0,1,0,12,17.71,17.71,0,0,1-4.9-1c-1.6-.6-2.9.2-2.9,1.9v20.1H359.3c-1.7,0-2.5,1.2-1.9,2.9a18.43,18.43,0,0,1,1,4.9,6,6,0,0,1-12,0,17.71,17.71,0,0,1,1-4.9c.6-1.6-.2-2.9-1.9-2.9H325.4V359.3c0-1.7-1.2-2.5-2.9-1.9a18.43,18.43,0,0,1-4.9,1,6,6,0,0,1,0-12Z" transform="translate(-0.01 0.09)"/></g><g class="b"><path class="c" d="M371.6,454.5a17.71,17.71,0,0,1,4.9,1c1.6.6,2.9-.2,2.9-1.9V433.5h20.1c1.7,0,2.5-1.2,1.9-2.9a18.43,18.43,0,0,1-1-4.9,6,6,0,1,1,12,0,17.71,17.71,0,0,1-1,4.9c-.6,1.6.2,2.9,1.9,2.9h20.1v20.1c0,1.7,1.2,2.5,2.9,1.9a18.43,18.43,0,0,1,4.9-1,6,6,0,1,1,0,12,17.71,17.71,0,0,1-4.9-1c-1.6-.6-2.9.2-2.9,1.9v20.2H413.3c-1.7,0-2.5,1.2-1.9,2.9a18.43,18.43,0,0,1,1,4.9,6,6,0,0,1-12,0,17.71,17.71,0,0,1,1-4.9c.6-1.6-.2-2.9-1.9-2.9H379.4V467.5c0-1.7-1.2-2.5-2.9-1.9a18.43,18.43,0,0,1-4.9,1,6.05,6.05,0,0,1,0-12.1Z" transform="translate(-0.01 0.09)"/></g><g class="b"><path class="c" d="M376.6,455.5a18.43,18.43,0,0,0-4.9-1,6,6,0,0,0,0,12,17.71,17.71,0,0,0,4.9-1c1.6-.6,2.9.2,2.9,1.8v20.3H359.4c-1.7,0-2.5-1.2-1.9-2.9a18.43,18.43,0,0,0,1-4.9,6,6,0,0,0-12,0,17.71,17.71,0,0,0,1,4.9c.6,1.6-.2,2.9-1.9,2.9H325.5V467.5c0-1.7,1.2-2.5,2.9-1.9a18.43,18.43,0,0,0,4.9,1,6,6,0,0,0,0-12,17.71,17.71,0,0,0-4.9,1c-1.6.6-2.9-.2-2.9-1.9V433.6h20.1c1.7,0,2.5-1.2,1.9-2.9a18.43,18.43,0,0,1-1-4.9,6,6,0,0,1,12,0,17.71,17.71,0,0,1-1,4.9c-.6,1.6.2,2.9,1.9,2.9h20.1v20.1C379.4,455.4,378.2,456.1,376.6,455.5Z" transform="translate(-0.01 0.09)"/></g><g class="b"><path class="c" d="M382.3,519.6a18.43,18.43,0,0,0,4.9,1,6,6,0,1,0,0-12,17.71,17.71,0,0,0-4.9,1c-1.6.6-2.9-.2-2.9-1.9V487.6h20.1c1.7,0,2.4,1.3,1.9,2.9a18.43,18.43,0,0,0-1,4.9,6,6,0,0,0,12,0,17.71,17.71,0,0,0-1-4.9c-.6-1.6.2-2.9,1.9-2.9h20.1v20.1c0,1.7,1.2,2.5,2.9,1.9a18.43,18.43,0,0,1,4.9-1,6,6,0,0,1,0,12,17.71,17.71,0,0,1-4.9-1c-1.6-.6-2.9.2-2.9,1.9v20.1h-54V521.5A2,2,0,0,1,382.3,519.6Z" transform="translate(-0.01 0.09)"/></g><g class="b"><path class="d" d="M479.7,508.6a17.71,17.71,0,0,1,4.9,1c1.6.6,2.9-.2,2.9-1.9V487.6h20.2c1.7,0,2.4,1.3,1.9,2.9a18.43,18.43,0,0,0-1,4.9,6,6,0,0,0,12,0,17.71,17.71,0,0,0-1-4.9c-.6-1.6.2-2.9,1.9-2.9h20.1v54h-54V521.5c0-1.7-1.2-2.5-2.9-1.9a18.43,18.43,0,0,1-4.9,1,6,6,0,0,1-6-6,5.87,5.87,0,0,1,5.9-6" transform="translate(-0.01 0.09)"/></g><g class="b"><path class="c" d="M479.7,508.6a17.71,17.71,0,0,1,4.9,1c1.6.6,2.9-.2,2.9-1.9V487.6h20.2c1.7,0,2.4,1.3,1.9,2.9a18.43,18.43,0,0,0-1,4.9,6,6,0,0,0,12,0,17.71,17.71,0,0,0-1-4.9c-.6-1.6.2-2.9,1.9-2.9h20.1v54h-54V521.5c0-1.7-1.2-2.5-2.9-1.9a18.43,18.43,0,0,1-4.9,1,6,6,0,0,1-6-6A5.87,5.87,0,0,1,479.7,508.6Z" transform="translate(-0.01 0.09)"/></g><g class="b"><path class="c" d="M433.5,541.6V521.5c0-1.7,1.2-2.5,2.9-1.9a18.43,18.43,0,0,0,4.9,1,6,6,0,1,0,0-12,17.71,17.71,0,0,0-4.9,1c-1.6.6-2.9-.2-2.9-1.9V487.6h20.1c1.7,0,2.5-1.2,1.9-2.9a18.43,18.43,0,0,1-1-4.9,6,6,0,1,1,12,0,17.71,17.71,0,0,1-1,4.9c-.6,1.6.2,2.9,1.9,2.9h20.2v20.1c0,1.7-1.2,2.5-2.9,1.9a18.43,18.43,0,0,0-4.9-1,6,6,0,1,0,0,12,17.71,17.71,0,0,0,4.9-1c1.6-.6,2.9.2,2.9,1.9v20.1Z" transform="translate(-0.01 0.09)"/></g><g class="b"><path class="c" d="M433.5,487.6V467.5c0-1.7,1.2-2.5,2.9-1.9a18.43,18.43,0,0,0,4.9,1,6,6,0,1,0,0-12,17.71,17.71,0,0,0-4.9,1c-1.6.6-2.9-.2-2.9-1.9V433.6h20.1c1.7,0,2.5-1.2,1.9-2.9a18.43,18.43,0,0,1-1-4.9,6,6,0,1,1,12,0,17.71,17.71,0,0,1-1,4.9c-.6,1.6.2,2.9,1.9,2.9h20.2v20.1c0,1.7-1.3,2.4-2.9,1.9a18.43,18.43,0,0,0-4.9-1,6,6,0,1,0,0,12,17.71,17.71,0,0,0,4.9-1c1.6-.6,2.9.2,2.9,1.9v20.1H467.4c-1.7,0-2.4-1.3-1.8-2.9a18.43,18.43,0,0,0,1-4.9,6,6,0,0,0-12,0,17.71,17.71,0,0,0,1,4.9c.6,1.6-.1,2.8-1.8,2.9Z" transform="translate(-0.01 0.09)"/></g><g class="b"><path class="c" d="M433.5,433.5V413.3c0-1.7,1.3-2.4,2.9-1.8a18.43,18.43,0,0,0,4.9,1,6,6,0,1,0,0-12,17.71,17.71,0,0,0-4.9,1c-1.6.6-2.8-.1-2.9-1.8V379.5h20.1c1.7,0,2.5,1.2,1.9,2.9a18.43,18.43,0,0,0-1,4.9,6,6,0,0,0,12,0,17.71,17.71,0,0,0-1-4.9c-.6-1.6.2-2.9,1.9-2.9h20.2v20.1c0,1.7-1.2,2.5-2.9,1.9a18.43,18.43,0,0,0-4.9-1,6,6,0,1,0,0,12,17.71,17.71,0,0,0,4.9-1c1.6-.6,2.9.2,2.9,1.9v20.1H467.5c-1.7,0-2.5-1.2-1.9-2.9a18.43,18.43,0,0,0,1-4.9,6,6,0,1,0-12,0,17.71,17.71,0,0,0,1,4.9c.6,1.6-.2,2.9-1.9,2.9H433.5Z" transform="translate(-0.01 0.09)"/></g><g class="b"><path class="c" d="M387.3,346.4a17.71,17.71,0,0,0-4.9,1c-1.6.6-2.9-.2-2.9-1.9V325.4h20.1c1.7,0,2.5,1.2,1.9,2.9a18.43,18.43,0,0,0-1,4.9,6,6,0,0,0,12,0,17.71,17.71,0,0,0-1-4.9c-.6-1.6.2-2.9,1.9-2.9h20.1v20.1c0,1.7-1.2,2.5-2.9,1.9a18.43,18.43,0,0,0-4.9-1,6,6,0,1,0,0,12,17.71,17.71,0,0,0,4.9-1c1.6-.6,2.9.2,2.9,1.9v20.1H412.9c-1.4.2-1.9,1.4-1.4,2.8a18.43,18.43,0,0,1,1,4.9,6,6,0,0,1-12,0,17.71,17.71,0,0,1,1-4.9c.5-1.5,0-2.6-1.4-2.8H379.5V359.3c0-1.7,1.2-2.5,2.9-1.9a18.43,18.43,0,0,0,4.9,1,6,6,0,1,0,0-12Z" transform="translate(-0.01 0.09)"/></g><g class="b"><path class="c" d="M441.3,412.5a17.71,17.71,0,0,1-4.9-1c-1.6-.6-2.9.2-2.9,1.9v20.1H413.4c-1.7,0-2.5-1.2-1.9-2.9a18.43,18.43,0,0,0,1-4.9,6,6,0,1,0-12,0,17.71,17.71,0,0,0,1,4.9c.6,1.6-.2,2.9-1.9,2.9H379.5V413.4c0-1.7-1.2-2.5-2.9-1.9a18.43,18.43,0,0,1-4.9,1,6,6,0,1,1,0-12,17.71,17.71,0,0,1,4.9,1c1.6.6,2.9-.2,2.9-1.9V379.5h20.6c1.4.2,1.9,1.4,1.4,2.8a18.43,18.43,0,0,0-1,4.9,6,6,0,1,0,12,0,17.71,17.71,0,0,0-1-4.9c-.5-1.5,0-2.6,1.4-2.8h20.6v20.1c0,1.7,1.2,2.5,2.9,1.9a18.43,18.43,0,0,1,4.9-1,6,6,0,0,1,6,6A5.89,5.89,0,0,1,441.3,412.5Z" transform="translate(-0.01 0.09)"/></g><g class="b"><path class="c" d="M376.6,401.5a18.43,18.43,0,0,0-4.9-1,6,6,0,0,0,0,12,17.71,17.71,0,0,0,4.9-1c1.6-.6,2.9.2,2.9,1.9v20.1H359.4c-1.7,0-2.5-1.2-1.9-2.9a18.43,18.43,0,0,0,1-4.9,6,6,0,0,0-12,0,17.71,17.71,0,0,0,1,4.9c.6,1.6-.2,2.9-1.9,2.9H325.5V413.3c0-1.7,1.3-2.4,2.9-1.8a18.43,18.43,0,0,0,4.9,1,6,6,0,1,0,0-12,17.71,17.71,0,0,0-4.9,1c-1.6.6-2.9-.2-2.9-1.8V379.5h20.1c1.7,0,2.5,1.2,1.9,2.9a18.43,18.43,0,0,0-1,4.9,6,6,0,1,0,12,0,17.71,17.71,0,0,0-1-4.9c-.6-1.6.2-2.9,1.9-2.9h20.1v20.1C379.5,401.3,378.2,402,376.6,401.5Z" transform="translate(-0.01 0.09)"/></g><g class="b"><polygon class="c" points="379.49 433.59 379.49 433.59 379.49 433.59 379.49 433.59 379.49 433.59 379.49 433.59"/></g><g class="b"><path class="c" d="M63,520.6a17.71,17.71,0,0,1-4.9-1c-1.6-.6-2.9.2-2.9,1.9v20.1H1.2v-54H21.3c1.7,0,2.5,1.2,1.9,2.9a18.43,18.43,0,0,0-1,4.9,6,6,0,0,0,12,0,17.71,17.71,0,0,0-1-4.9c-.6-1.6.2-2.9,1.9-2.9H55.2v20.1c0,1.7,1.2,2.5,2.9,1.9a18.43,18.43,0,0,1,4.9-1,6,6,0,1,1,0,12Z" transform="translate(-0.01 0.09)"/></g><g class="b"><path class="c" d="M117,466.5a17.71,17.71,0,0,1-4.9-1c-1.6-.6-2.9.2-2.9,1.9v20.2H89.1c-1.7,0-2.5,1.2-1.9,2.9a18.43,18.43,0,0,1,1,4.9,6,6,0,0,1-12,0,17.71,17.71,0,0,1,1-4.9c.6-1.6-.2-2.9-1.9-2.9H55.2V467.5c0-1.7-1.2-2.5-2.9-1.9a18.43,18.43,0,0,1-4.9,1,6,6,0,0,1,0-12,17.71,17.71,0,0,1,4.9,1c1.6.6,2.9-.2,2.9-1.9V433.6H75.3c1.7,0,2.5-1.2,1.9-2.9a18.43,18.43,0,0,1-1-4.9,6,6,0,0,1,12,0,17.71,17.71,0,0,1-1,4.9c-.6,1.6.2,2.9,1.9,2.9h20.1v20c0,1.7,1.2,2.5,2.9,1.9a18.43,18.43,0,0,1,4.9-1,6,6,0,0,1,6,6A5.83,5.83,0,0,1,117,466.5Z" transform="translate(-0.01 0.09)"/></g><g class="b"><path class="c" d="M171.1,520.6a17.71,17.71,0,0,1-4.9-1c-1.6-.6-2.9.2-2.9,1.9v20.1h-54V521.5c0-1.7-1.2-2.5-2.9-1.9a18.43,18.43,0,0,1-4.9,1,6,6,0,1,1,0-12,17.71,17.71,0,0,1,4.9,1c1.6.6,2.9-.2,2.9-1.9V487.6h20.1c1.7,0,2.5-1.2,1.9-2.9a18.43,18.43,0,0,1-1-4.9,6,6,0,0,1,12,0,17.71,17.71,0,0,1-1,4.9c-.6,1.6.2,2.9,1.9,2.9h20.1v20.1c0,1.7,1.2,2.5,2.9,1.9a18.43,18.43,0,0,1,4.9-1,6,6,0,1,1,0,12Z" transform="translate(-0.01 0.09)"/></g><g class="b"><path class="c" d="M55.2,521.5c0-1.7,1.2-2.5,2.9-1.9a18.43,18.43,0,0,0,4.9,1,6,6,0,1,0,0-12,17.71,17.71,0,0,0-4.9,1c-1.6.6-2.9-.2-2.9-1.9V487.6H75.3c1.7,0,2.5,1.2,1.9,2.9a18.43,18.43,0,0,0-1,4.9,6,6,0,0,0,12,0,17.71,17.71,0,0,0-1-4.9c-.6-1.6.2-2.9,1.9-2.9h20.1v20.1c0,1.7-1.3,2.4-2.9,1.9a18.43,18.43,0,0,0-4.9-1,6,6,0,0,0,0,12,17.71,17.71,0,0,0,4.9-1c1.6-.6,2.9.2,2.9,1.9v20.1H55.1V521.5Z" transform="translate(-0.01 0.09)"/></g><g class="b"><path class="c" d="M225.1,466.5a17.71,17.71,0,0,1-4.9-1c-1.6-.6-2.9.2-2.9,1.9v20.1H197.2c-1.7,0-2.5,1.2-1.9,2.9a18.43,18.43,0,0,1,1,4.9,6,6,0,0,1-12,0,17.71,17.71,0,0,1,1-4.9c.6-1.6-.2-2.9-1.9-2.9H163.3V467.4c0-1.7-1.2-2.5-2.9-1.9a18.43,18.43,0,0,1-4.9,1,6,6,0,1,1,0-12,17.71,17.71,0,0,1,4.9,1c1.6.6,2.9-.2,2.9-1.9V433.5h20.1c1.7,0,2.5-1.2,1.9-2.9a18.43,18.43,0,0,1-1-4.9,6,6,0,0,1,12,0,17.71,17.71,0,0,1-1,4.9c-.6,1.6.2,2.9,1.9,2.9h20.1v20.1c0,1.7,1.2,2.5,2.9,1.9a18.43,18.43,0,0,1,4.9-1,6,6,0,0,1,6,6A5.83,5.83,0,0,1,225.1,466.5Z" transform="translate(-0.01 0.09)"/></g><g class="b"><path class="c" d="M23.1,436.4a18.43,18.43,0,0,0-1,4.9,6,6,0,1,0,12,0,17.71,17.71,0,0,0-1-4.9c-.5-1.6.1-2.8,1.8-2.9H55.1v20.1c0,1.7-1.2,2.5-2.9,1.9a18.43,18.43,0,0,0-4.9-1,6,6,0,1,0,0,12,17.71,17.71,0,0,0,4.9-1c1.6-.6,2.9.2,2.9,1.9v20.2H35c-1.7,0-2.5,1.2-1.9,2.9a18.43,18.43,0,0,1,1,4.9,6,6,0,0,1-12,0,17.71,17.71,0,0,1,1-4.9c.6-1.6-.2-2.9-1.9-2.9H1.1v-54H21.3C23,433.6,23.7,434.8,23.1,436.4Z" transform="translate(-0.01 0.09)"/></g><g class="b"><path class="c" d="M171.1,358.5a17.71,17.71,0,0,1-4.9-1c-1.6-.6-2.9.2-2.9,1.9v20.1H143.2c-1.7,0-2.5,1.2-1.9,2.9a18.43,18.43,0,0,1,1,4.9,6,6,0,0,1-12,0,17.71,17.71,0,0,1,1-4.9c.6-1.6-.2-2.9-1.9-2.9H109.3V359.4c0-1.7-1.2-2.5-2.9-1.9a18.43,18.43,0,0,1-4.9,1,6,6,0,0,1,0-12,17.71,17.71,0,0,1,4.9,1c1.6.6,2.9-.2,2.9-1.9V325.5h20.1c1.7,0,2.5-1.2,1.9-2.9a18.43,18.43,0,0,1-1-4.9,6,6,0,0,1,12,0,17.71,17.71,0,0,1-1,4.9c-.6,1.6.2,2.9,1.9,2.9h20.1v20.1c0,1.7,1.2,2.5,2.9,1.9a18.43,18.43,0,0,1,4.9-1,6,6,0,0,1,0,12Z" transform="translate(-0.01 0.09)"/></g><g class="b"><path class="c" d="M166.1,357.4a18.43,18.43,0,0,0,4.9,1,6,6,0,0,0,0-12,17.71,17.71,0,0,0-4.9,1c-1.6.6-2.9-.2-2.9-1.8V325.4h20.1c1.7,0,2.5,1.2,1.9,2.9a18.43,18.43,0,0,0-1,4.9,6,6,0,0,0,12,0,17.71,17.71,0,0,0-1-4.9c-.6-1.6.2-2.9,1.9-2.9h20.1v20.1c0,1.7-1.2,2.5-2.9,1.9a18.43,18.43,0,0,0-4.9-1,6,6,0,0,0,0,12,17.71,17.71,0,0,0,4.9-1c1.6-.6,2.9.2,2.9,1.9v20.1H197.1c-1.7,0-2.5,1.2-1.9,2.9a18.43,18.43,0,0,1,1,4.9,6,6,0,0,1-12,0,17.71,17.71,0,0,1,1-4.9c.6-1.6-.2-2.9-1.9-2.9H163.2V359.2C163.3,357.6,164.5,356.9,166.1,357.4Z" transform="translate(-0.01 0.09)"/></g><g class="b"><path class="c" d="M163.3,541.6V521.5c0-1.7,1.2-2.5,2.9-1.9a18.43,18.43,0,0,0,4.9,1,6,6,0,1,0,0-12,17.71,17.71,0,0,0-4.9,1c-1.6.6-2.9-.2-2.9-1.9V487.6h20.2c1.7,0,2.4,1.3,1.8,2.9a18.43,18.43,0,0,0-1,4.9,6,6,0,0,0,12,0,17.71,17.71,0,0,0-1-4.9c-.6-1.6.1-2.9,1.8-2.9h20.2v20.1c0,1.7-1.3,2.4-2.9,1.8a18.43,18.43,0,0,0-4.9-1,6,6,0,0,0,0,12,17.71,17.71,0,0,0,4.9-1c1.6-.6,2.9.2,2.9,1.8v20.3Z" transform="translate(-0.01 0.09)"/></g><g class="b"><path class="c" d="M63,412.5a17.71,17.71,0,0,1-4.9-1c-1.6-.6-2.9.2-2.9,1.9v20.1H35.1c-1.7,0-2.5,1.2-1.9,2.9a18.43,18.43,0,0,1,1,4.9,6,6,0,1,1-12,0,17.71,17.71,0,0,1,1-4.9c.6-1.6-.2-2.9-1.9-2.9H1.2V379.4H21.3c1.7,0,2.5-1.2,1.9-2.9a18.43,18.43,0,0,1-1-4.9,6,6,0,1,1,12,0,17.71,17.71,0,0,1-1,4.9c-.6,1.6.2,2.9,1.9,2.9H55.2v20.1c0,1.7,1.2,2.5,2.9,1.9a18.43,18.43,0,0,1,4.9-1,6.05,6.05,0,0,1,0,12.1Z" transform="translate(-0.01 0.09)"/></g><g class="b"><path class="c" d="M63,358.4a17.71,17.71,0,0,1-4.9-1c-1.6-.6-2.9.2-2.9,1.9v20.1H35.1c-1.7,0-2.5-1.2-1.9-2.9a18.43,18.43,0,0,0,1-4.9,6,6,0,1,0-12,0,17.71,17.71,0,0,0,1,4.9c.6,1.6-.2,2.9-1.9,2.9H1.2v-54H21.3c1.7,0,2.5-1.2,1.9-2.9a18.43,18.43,0,0,1-1-4.9,6,6,0,0,1,12,0,17.71,17.71,0,0,1-1,4.9c-.6,1.6.2,2.9,1.9,2.9H55.2v20.1c0,1.7,1.2,2.5,2.9,1.9a18.43,18.43,0,0,1,4.9-1,6,6,0,0,1,6,6A6,6,0,0,1,63,358.4Z" transform="translate(-0.01 0.09)"/></g><g class="b"><path class="c" d="M109.2,325.4v20.1c0,1.7-1.2,2.5-2.9,1.9a18.43,18.43,0,0,0-4.9-1,6,6,0,0,0,0,12,17.71,17.71,0,0,0,4.9-1c1.6-.6,2.9.2,2.9,1.9v20.1H89.1c-1.7,0-2.5,1.2-1.9,2.9a18.43,18.43,0,0,1,1,4.9,6,6,0,0,1-12,0,17.71,17.71,0,0,1,1-4.9c.6-1.6-.2-2.9-1.9-2.9H55.2V359.2c0-1.7,1.3-2.4,2.9-1.9a18.43,18.43,0,0,0,4.9,1,6,6,0,0,0,0-12,17.71,17.71,0,0,0-4.9,1c-1.6.6-2.9-.2-2.9-1.9V325.3H75.4c1.7,0,2.4,1.3,1.8,2.9a18.43,18.43,0,0,0-1,4.9,6,6,0,0,0,12,0,17.71,17.71,0,0,0-1-4.9,2,2,0,0,1,1.8-2.9l20.2.1Z" transform="translate(-0.01 0.09)"/></g><g class="b"><path class="c" d="M109.2,379.5v20.2c0,1.7-1.3,2.4-2.9,1.8a18.43,18.43,0,0,0-4.9-1,6,6,0,0,0,0,12,17.71,17.71,0,0,0,4.9-1c1.6-.6,2.9.1,2.9,1.8v20.2H89.1c-1.7,0-2.5-1.2-1.9-2.9a18.43,18.43,0,0,0,1-4.9,6,6,0,0,0-12,0,17.71,17.71,0,0,0,1,4.9c.6,1.6-.2,2.9-1.9,2.9H55.2V413.4c0-1.7,1.2-2.5,2.9-1.9a18.43,18.43,0,0,0,4.9,1,6,6,0,0,0,0-12,17.71,17.71,0,0,0-4.9,1c-1.6.6-2.9-.2-2.9-1.9V379.5H75.3c1.7,0,2.5,1.2,1.9,2.9a18.43,18.43,0,0,0-1,4.9,6,6,0,0,0,12,0,17.71,17.71,0,0,0-1-4.9c-.6-1.6.2-2.9,1.9-2.9Z" transform="translate(-0.01 0.09)"/></g><g class="b"><path class="c" d="M155.4,466.5a17.71,17.71,0,0,0,4.9-1c1.6-.6,2.9.2,2.9,1.9v20.2H143.1c-1.7,0-2.5-1.2-1.9-2.9a18.43,18.43,0,0,0,1-4.9,6,6,0,0,0-12,0,17.71,17.71,0,0,0,1,4.9c.6,1.6-.2,2.9-1.9,2.9H109.2V467.5c0-1.7,1.2-2.5,2.9-1.9a18.43,18.43,0,0,0,4.9,1,6,6,0,0,0,0-12,17.71,17.71,0,0,0-4.9,1c-1.6.6-2.9-.2-2.9-1.9V433.6h20.6c1.4-.2,1.9-1.4,1.4-2.8a18.43,18.43,0,0,1-1-4.9,6,6,0,0,1,12,0,17.71,17.71,0,0,1-1,4.9c-.5,1.5,0,2.6,1.4,2.8h20.6v20c0,1.7-1.2,2.5-2.9,1.9a18.43,18.43,0,0,0-4.9-1,6,6,0,0,0-6,6A6,6,0,0,0,155.4,466.5Z" transform="translate(-0.01 0.09)"/></g><g class="b"><path class="c" d="M101.4,400.5a17.71,17.71,0,0,1,4.9,1c1.6.6,2.9-.2,2.9-1.9V379.5h20.1c1.7,0,2.5,1.2,1.9,2.9a18.43,18.43,0,0,0-1,4.9,6,6,0,0,0,12,0,17.71,17.71,0,0,0-1-4.9c-.6-1.6.2-2.9,1.9-2.9h20.1v20.1c0,1.7,1.2,2.5,2.9,1.9a18.43,18.43,0,0,1,4.9-1,6,6,0,0,1,0,12,17.71,17.71,0,0,1-4.9-1c-1.6-.6-2.9.2-2.9,1.9v20.1H142.6c-1.4-.2-1.9-1.4-1.4-2.8a18.43,18.43,0,0,0,1-4.9,6,6,0,0,0-12,0,17.71,17.71,0,0,0,1,4.9c.5,1.5,0,2.6-1.4,2.8H109.2V413.4c0-1.7-1.2-2.5-2.9-1.9a18.43,18.43,0,0,1-4.9,1,6,6,0,0,1,0-12Z" transform="translate(-0.01 0.09)"/></g><g class="b"><path class="c" d="M166.2,411.5a18.43,18.43,0,0,0,4.9,1,6,6,0,0,0,0-12,17.71,17.71,0,0,0-4.9,1c-1.6.6-2.9-.2-2.9-1.9V379.5h20.1c1.7,0,2.5,1.2,1.9,2.9a18.43,18.43,0,0,0-1,4.9,6,6,0,0,0,12,0,17.71,17.71,0,0,0-1-4.9c-.6-1.6.2-2.9,1.9-2.9h20.1v20.2c0,1.7-1.3,2.4-2.9,1.8a18.43,18.43,0,0,0-4.9-1,6,6,0,1,0,0,12,17.71,17.71,0,0,0,4.9-1c1.6-.6,2.9.2,2.9,1.8v20.2H197.2c-1.7,0-2.5-1.2-1.9-2.9a18.43,18.43,0,0,0,1-4.9,6,6,0,0,0-12,0,17.71,17.71,0,0,0,1,4.9c.6,1.6-.2,2.9-1.9,2.9H163.3V413.4C163.3,411.7,164.5,410.9,166.2,411.5Z" transform="translate(-0.01 0.09)"/></g><g class="b"><polygon class="c" points="163.29 379.59 163.29 379.59 163.29 379.59 163.29 379.59 163.29 379.59 163.29 379.59"/></g><g class="b"><path class="c" d="M279.2,520.6a17.71,17.71,0,0,1-4.9-1c-1.6-.6-2.9.2-2.9,1.9v20.1h-54V521.5c0-1.7-1.2-2.5-2.9-1.9a18.43,18.43,0,0,1-4.9,1,6,6,0,1,1,0-12,17.71,17.71,0,0,1,4.9,1c1.6.6,2.9-.2,2.9-1.9V487.6h20.5c1.5-.2,2.1-1.3,1.5-2.9a18.43,18.43,0,0,1-1-4.9,6,6,0,1,1,12,0,17.71,17.71,0,0,1-1,4.9c-.5,1.5.1,2.7,1.5,2.9h20.5v20.1c0,1.7,1.2,2.5,2.9,1.9a18.43,18.43,0,0,1,4.9-1,6,6,0,1,1,0,12Z" transform="translate(-0.01 0.09)"/></g><g class="b"><path class="c" d="M279.2,412.5a17.71,17.71,0,0,1-4.9-1c-1.6-.6-2.9.2-2.9,1.9v20.1H251.3c-1.7,0-2.5,1.2-1.9,2.9a18.43,18.43,0,0,1,1,4.9,6,6,0,0,1-12,0,17.71,17.71,0,0,1,1-4.9c.6-1.6-.2-2.9-1.9-2.9H217.4V413.4c0-1.7-1.2-2.5-2.9-1.9a18.43,18.43,0,0,1-4.9,1,6,6,0,1,1,0-12,17.71,17.71,0,0,1,4.9,1c1.6.6,2.9-.2,2.9-1.9V379.5h20.1c1.7,0,2.5-1.2,1.9-2.9a18.43,18.43,0,0,1-1-4.9,6,6,0,1,1,12,0,17.71,17.71,0,0,1-1,4.9c-.6,1.6.2,2.9,1.9,2.9h20.1v20.1c0,1.7,1.2,2.5,2.9,1.9a18.43,18.43,0,0,1,4.9-1,6,6,0,1,1,0,12Z" transform="translate(-0.01 0.09)"/></g><g class="b"><path class="c" d="M333.2,412.5a17.71,17.71,0,0,1-4.9-1c-1.6-.6-2.9.2-2.9,1.9v20.1H305.3c-1.7,0-2.5,1.2-1.9,2.9a18.43,18.43,0,0,1,1,4.9,6,6,0,0,1-12,0,17.71,17.71,0,0,1,1-4.9c.6-1.6-.2-2.9-1.9-2.9H271.4V413.3c0-1.7,1.3-2.4,2.9-1.8a18.43,18.43,0,0,0,4.9,1,6,6,0,0,0,0-12,17.71,17.71,0,0,0-4.9,1c-1.6.6-2.8-.1-2.9-1.8V379.5h20.1c1.7,0,2.5-1.2,1.9-2.9a18.43,18.43,0,0,1-1-4.9,6,6,0,0,1,12,0,17.71,17.71,0,0,1-1,4.9c-.6,1.6.2,2.9,1.9,2.9h20.1v20.1c0,1.7,1.2,2.5,2.9,1.9a18.43,18.43,0,0,1,4.9-1,6,6,0,0,1,6,6A5.89,5.89,0,0,1,333.2,412.5Z" transform="translate(-0.01 0.09)"/></g><g class="b"><path class="c" d="M317.6,508.6a17.71,17.71,0,0,1,4.9,1c1.6.6,2.9-.2,2.9-1.9V487.6h20.1c1.7,0,2.5-1.2,1.9-2.9a18.43,18.43,0,0,1-1-4.9,6,6,0,0,1,12,0,17.71,17.71,0,0,1-1,4.9c-.6,1.6.2,2.9,1.9,2.9h20.1v20.1c0,1.7,1.2,2.5,2.9,1.9a18.43,18.43,0,0,1,4.9-1,6,6,0,0,1,0,12,17.71,17.71,0,0,1-4.9-1c-1.6-.6-2.9.2-2.9,1.9v20.1h-54V521.5c0-1.7-1.2-2.5-2.9-1.9a18.43,18.43,0,0,1-4.9,1,6,6,0,1,1,0-12Z" transform="translate(-0.01 0.09)"/></g><g class="b"><path class="c" d="M322.5,509.6a18.43,18.43,0,0,0-4.9-1,6,6,0,1,0,0,12,17.71,17.71,0,0,0,4.9-1c1.6-.6,2.9.2,2.9,1.9v20.1h-54V521.5c0-1.7,1.2-2.5,2.9-1.9a18.43,18.43,0,0,0,4.9,1,6,6,0,1,0,0-12,17.71,17.71,0,0,0-4.9,1c-1.6.6-2.9-.2-2.9-1.9V487.6h20.1c1.7,0,2.5-1.2,1.9-2.9a18.43,18.43,0,0,1-1-4.9,6,6,0,1,1,12,0,17.71,17.71,0,0,1-1,4.9c-.6,1.6.2,2.9,1.9,2.9h20.1v20.1C325.4,509.4,324.2,510.1,322.5,509.6Z" transform="translate(-0.01 0.09)"/></g><g class="b"><path class="c" d="M333.2,466.6a17.71,17.71,0,0,1-4.9-1c-1.6-.6-2.9.2-2.9,1.9v20.1H305.3c-1.7,0-2.5-1.2-1.9-2.9a18.43,18.43,0,0,0,1-4.9,6,6,0,1,0-12,0,17.71,17.71,0,0,0,1,4.9c.6,1.6-.2,2.9-1.9,2.9H271.4V467.4c0-1.7-1.3-2.4-2.9-1.8a18.43,18.43,0,0,1-4.9,1,6,6,0,0,1,0-12,17.71,17.71,0,0,1,4.9,1c1.6.6,2.8-.1,2.9-1.8V433.6h20.2c1.7,0,2.4,1.3,1.8,2.9a18.43,18.43,0,0,0-1,4.9,6,6,0,0,0,12,0,17.71,17.71,0,0,0-1-4.9c-.6-1.6.2-2.9,1.8-2.9h20.2v20c0,1.7,1.2,2.5,2.9,1.9a18.43,18.43,0,0,1,4.9-1,6,6,0,0,1,6,6A5.92,5.92,0,0,1,333.2,466.6Z" transform="translate(-0.01 0.09)"/></g><g class="b"><path class="d" d="M271.4,433.5v20.2c0,1.7-1.3,2.4-2.9,1.8a18.43,18.43,0,0,0-4.9-1,6,6,0,1,0,0,12,17.71,17.71,0,0,0,4.9-1c1.6-.6,2.8.1,2.9,1.8v20.3H250.9c-1.5-.2-2.1-1.3-1.5-2.9a18.43,18.43,0,0,0,1-4.9,6,6,0,1,0-12,0,17.71,17.71,0,0,0,1,4.9c.5,1.5-.1,2.7-1.5,2.9H217.4V467.5c0-1.7,1.2-2.5,2.9-1.9a18.43,18.43,0,0,0,4.9,1,6,6,0,1,0,0-12,17.71,17.71,0,0,0-4.9,1c-1.6.6-2.9-.2-2.9-1.9V433.6h20.1c1.7,0,2.5,1.2,1.9,2.9a18.43,18.43,0,0,0-1,4.9,6,6,0,0,0,12,0,17.71,17.71,0,0,0-1-4.9c-.6-1.6.2-2.9,1.9-2.9h20.1Z" transform="translate(-0.01 0.09)"/></g><g class="b"><path class="c" d="M271.4,433.5v20.2c0,1.7-1.3,2.4-2.9,1.8a18.43,18.43,0,0,0-4.9-1,6,6,0,1,0,0,12,17.71,17.71,0,0,0,4.9-1c1.6-.6,2.8.1,2.9,1.8v20.3H250.9c-1.5-.2-2.1-1.3-1.5-2.9a18.43,18.43,0,0,0,1-4.9,6,6,0,1,0-12,0,17.71,17.71,0,0,0,1,4.9c.5,1.5-.1,2.7-1.5,2.9H217.4V467.5c0-1.7,1.2-2.5,2.9-1.9a18.43,18.43,0,0,0,4.9,1,6,6,0,1,0,0-12,17.71,17.71,0,0,0-4.9,1c-1.6.6-2.9-.2-2.9-1.9V433.6h20.1c1.7,0,2.5,1.2,1.9,2.9a18.43,18.43,0,0,0-1,4.9,6,6,0,0,0,12,0,17.71,17.71,0,0,0-1-4.9c-.6-1.6.2-2.9,1.9-2.9h20.1Z" transform="translate(-0.01 0.09)"/></g><g class="b"><path class="c" d="M325.4,325.4v20.1c0,1.7-1.2,2.5-2.9,1.9a18.43,18.43,0,0,0-4.9-1,6,6,0,1,0,0,12,17.71,17.71,0,0,0,4.9-1c1.6-.6,2.9.2,2.9,1.9v20.1H305.3c-1.7,0-2.5-1.2-1.9-2.9a18.43,18.43,0,0,0,1-4.9,6,6,0,1,0-12,0,17.71,17.71,0,0,0,1,4.9c.6,1.6-.2,2.9-1.9,2.9H271.4V359.3c0-1.7-1.2-2.5-2.9-1.9a18.43,18.43,0,0,1-4.9,1,6,6,0,1,1,0-12,17.71,17.71,0,0,1,4.9,1c1.6.6,2.9-.2,2.9-1.9V325.4h20.5c1.5.2,2.1,1.3,1.5,2.9a18.43,18.43,0,0,0-1,4.9,6,6,0,0,0,12,0,17.71,17.71,0,0,0-1-4.9c-.5-1.5.1-2.7,1.5-2.9Z" transform="translate(-0.01 0.09)"/></g><g class="b"><path class="c" d="M271.4,325.4v20.1c0,1.7-1.2,2.5-2.9,1.9a18.43,18.43,0,0,0-4.9-1,6,6,0,1,0,0,12,17.71,17.71,0,0,0,4.9-1c1.6-.6,2.9.2,2.9,1.9v20.1H251.2c-1.7,0-2.4-1.3-1.8-2.9a18.43,18.43,0,0,0,1-4.9,6,6,0,1,0-12,0,17.71,17.71,0,0,0,1,4.9c.6,1.6-.2,2.9-1.8,2.9H217.4V359.3c0-1.7-1.2-2.5-2.9-1.9a18.43,18.43,0,0,1-4.9,1,6,6,0,1,1,0-12,17.71,17.71,0,0,1,4.9,1c1.6.6,2.9-.2,2.9-1.9V325.4h20.1c1.7,0,2.5,1.2,1.9,2.9a18.43,18.43,0,0,0-1,4.9,6,6,0,0,0,12,0,17.71,17.71,0,0,0-1-4.9c-.6-1.6.2-2.9,1.9-2.9Z" transform="translate(-0.01 0.09)"/></g><g class="b"><path class="c" d="M117.1,196.3a17.71,17.71,0,0,1-4.9-1c-1.6-.6-2.9.2-2.9,1.9v20.1H89.2c-1.7,0-2.5,1.2-1.9,2.9a18.43,18.43,0,0,1,1,4.9,6,6,0,0,1-12,0,17.71,17.71,0,0,1,1-4.9c.6-1.6-.2-2.9-1.9-2.9H55.3V197.2c0-1.7-1.2-2.5-2.9-1.9a18.43,18.43,0,0,1-4.9,1,6,6,0,1,1,0-12,17.71,17.71,0,0,1,4.9,1c1.6.6,2.9-.2,2.9-1.9V163.3H75.4c1.7,0,2.5-1.2,1.9-2.9a18.43,18.43,0,0,1-1-4.9,6,6,0,0,1,12,0,17.71,17.71,0,0,1-1,4.9c-.6,1.6.2,2.9,1.9,2.9h20.1v20.1c0,1.7,1.2,2.5,2.9,1.9a18.43,18.43,0,0,1,4.9-1,6,6,0,0,1,0,12Z" transform="translate(-0.01 0.09)"/></g><g class="b"><path class="c" d="M225.2,196.3a17.71,17.71,0,0,1-4.9-1c-1.6-.6-2.9.2-2.9,1.9v20.1H197.3c-1.7,0-2.5,1.2-1.9,2.9a18.43,18.43,0,0,1,1,4.9,6,6,0,0,1-12,0,17.71,17.71,0,0,1,1-4.9c.6-1.6-.2-2.9-1.9-2.9H163.4V197.2c0-1.7-1.2-2.5-2.9-1.9a18.43,18.43,0,0,1-4.9,1,6,6,0,0,1,0-12,17.71,17.71,0,0,1,4.9,1c1.6.6,2.9-.2,2.9-1.9V163.3h20.1c1.7,0,2.5-1.2,1.9-2.9a18.43,18.43,0,0,1-1-4.9,6,6,0,1,1,12,0,17.71,17.71,0,0,1-1,4.9c-.6,1.6.2,2.9,1.9,2.9h20.1v20.1c0,1.7,1.2,2.5,2.9,1.9a18.43,18.43,0,0,1,4.9-1,6,6,0,0,1,0,12Z" transform="translate(-0.01 0.09)"/></g><g class="b"><path class="c" d="M23.1,166.1a18.43,18.43,0,0,0-1,4.9,6,6,0,0,0,12,0,17.71,17.71,0,0,0-1-4.9c-.5-1.6.1-2.8,1.8-2.9H55.1v20.1c0,1.7-1.2,2.5-2.9,1.9a18.43,18.43,0,0,0-4.9-1,6,6,0,0,0,0,12,17.71,17.71,0,0,0,4.9-1c1.6-.6,2.9.2,2.9,1.9v20.1H35c-1.7,0-2.5,1.2-1.9,2.9a18.43,18.43,0,0,1,1,4.9,6,6,0,0,1-12,0,17.71,17.71,0,0,1,1-4.9c.6-1.6-.2-2.9-1.9-2.9H1.1V163.1H21.3A2,2,0,0,1,23.1,166.1Z" transform="translate(-0.01 0.09)"/></g><g class="b"><path class="c" d="M171.1,88.2a17.71,17.71,0,0,1-4.9-1c-1.6-.6-2.9.2-2.9,1.9v20.1H143.2c-1.7,0-2.5,1.2-1.9,2.9a18.43,18.43,0,0,1,1,4.9,6,6,0,0,1-12,0,17.71,17.71,0,0,1,1-4.9c.6-1.6-.2-2.9-1.9-2.9H109.3V89.1c0-1.7-1.2-2.5-2.9-1.9a18.43,18.43,0,0,1-4.9,1,6,6,0,0,1,0-12,17.71,17.71,0,0,1,4.9,1c1.6.6,2.9-.2,2.9-1.9V55.2h20.1c1.7,0,2.5-1.2,1.9-2.9a18.43,18.43,0,0,1-1-4.9,6,6,0,1,1,12,0,17.71,17.71,0,0,1-1,4.9c-.6,1.6.2,2.9,1.9,2.9h20.1V75.3c0,1.7,1.2,2.5,2.9,1.9a18.43,18.43,0,0,1,4.9-1,6,6,0,0,1,0,12Z" transform="translate(-0.01 0.09)"/></g><g class="b"><path class="c" d="M63,142.2a17.71,17.71,0,0,1-4.9-1c-1.6-.6-2.9.2-2.9,1.9v20.1H35.1c-1.7,0-2.5,1.2-1.9,2.9a18.43,18.43,0,0,1,1,4.9,6,6,0,0,1-12,0,17.71,17.71,0,0,1,1-4.9c.6-1.6-.2-2.9-1.9-2.9H1.2V109.1H21.3c1.7,0,2.5-1.2,1.9-2.9a18.43,18.43,0,0,1-1-4.9,6,6,0,0,1,12,0,17.71,17.71,0,0,1-1,4.9c-.6,1.6.2,2.9,1.9,2.9H55.2v20.1c0,1.7,1.2,2.5,2.9,1.9a18.43,18.43,0,0,1,4.9-1,6.05,6.05,0,0,1,0,12.1Z" transform="translate(-0.01 0.09)"/></g><g class="b"><path class="c" d="M63,88.2a17.71,17.71,0,0,1-4.9-1c-1.6-.6-2.9.2-2.9,1.9v20.1H35.1c-1.7,0-2.5-1.2-1.9-2.9a18.43,18.43,0,0,0,1-4.9,6,6,0,0,0-12,0,17.71,17.71,0,0,0,1,4.9c.6,1.6-.2,2.9-1.9,2.9H1.2v-54H21.3c1.7,0,2.5-1.2,1.9-2.9a18.43,18.43,0,0,1-1-4.9,6,6,0,1,1,12,0,17.71,17.71,0,0,1-1,4.9c-.6,1.6.2,2.9,1.9,2.9H55.2V75.3c0,1.7,1.2,2.5,2.9,1.9a18.43,18.43,0,0,1,4.9-1,6,6,0,1,1,0,12Z" transform="translate(-0.01 0.09)"/></g><g class="b"><path class="c" d="M63,34.1a17.71,17.71,0,0,1-4.9-1c-1.6-.6-2.9.2-2.9,1.9V55.1H35.1c-1.7,0-2.4-1.3-1.9-2.9a18.43,18.43,0,0,0,1-4.9,6,6,0,1,0-12,0,17.71,17.71,0,0,0,1,4.9c.6,1.6-.2,2.9-1.9,2.9H1.2V1H55.3V21.1c0,1.7,1.2,2.5,2.9,1.9a18.43,18.43,0,0,1,4.9-1,6,6,0,0,1,6,6A6.19,6.19,0,0,1,63,34.1Z" transform="translate(-0.01 0.09)"/></g><g class="b"><path class="c" d="M109.2,55.2V75.3c0,1.7-1.2,2.5-2.9,1.9a18.43,18.43,0,0,0-4.9-1,6,6,0,0,0,0,12,17.71,17.71,0,0,0,4.9-1c1.6-.6,2.9.2,2.9,1.9v20.1H89.1c-1.7,0-2.5,1.2-1.9,2.9a18.43,18.43,0,0,1,1,4.9,6,6,0,0,1-12,0,17.71,17.71,0,0,1,1-4.9c.6-1.6-.2-2.9-1.9-2.9H55.2V89c0-1.7,1.3-2.4,2.9-1.9a18.43,18.43,0,0,0,4.9,1,6,6,0,0,0,0-12,17.71,17.71,0,0,0-4.9,1c-1.6.6-2.9-.2-2.9-1.9V55.1H75.4c1.7,0,2.4,1.3,1.8,2.9a18.43,18.43,0,0,0-1,4.9,6,6,0,0,0,12,0,17.71,17.71,0,0,0-1-4.9c-.6-1.6.1-2.9,1.8-2.9l20.2.1Z" transform="translate(-0.01 0.09)"/></g><g class="b"><path class="c" d="M109.2,109.2v20.2c0,1.7-1.3,2.4-2.9,1.8a18.43,18.43,0,0,0-4.9-1,6,6,0,0,0,0,12,17.71,17.71,0,0,0,4.9-1c1.6-.6,2.9.1,2.9,1.8v20.2H89.1c-1.7,0-2.5-1.2-1.9-2.9a18.43,18.43,0,0,0,1-4.9,6,6,0,0,0-12,0,17.71,17.71,0,0,0,1,4.9c.6,1.6-.2,2.9-1.9,2.9H55.2V143.1c0-1.7,1.2-2.5,2.9-1.9a18.43,18.43,0,0,0,4.9,1,6,6,0,0,0,0-12,17.71,17.71,0,0,0-4.9,1c-1.6.6-2.9-.2-2.9-1.9V109.2H75.3c1.7,0,2.5,1.2,1.9,2.9a18.43,18.43,0,0,0-1,4.9,6,6,0,0,0,12,0,17.71,17.71,0,0,0-1-4.9c-.6-1.6.2-2.9,1.9-2.9Z" transform="translate(-0.01 0.09)"/></g><g class="b"><path class="c" d="M155.4,196.3a17.71,17.71,0,0,0,4.9-1c1.6-.6,2.9.2,2.9,1.9v20.1H143.1c-1.7,0-2.5-1.2-1.9-2.9a18.43,18.43,0,0,0,1-4.9,6,6,0,0,0-12,0,17.71,17.71,0,0,0,1,4.9c.6,1.6-.2,2.9-1.9,2.9H109.2V197.2c0-1.7,1.2-2.5,2.9-1.9a18.43,18.43,0,0,0,4.9,1,6,6,0,1,0,0-12,17.71,17.71,0,0,0-4.9,1c-1.6.6-2.9-.2-2.9-1.9V163.3h20.6c1.4-.2,1.9-1.4,1.4-2.8a18.43,18.43,0,0,1-1-4.9,6,6,0,0,1,12,0,17.71,17.71,0,0,1-1,4.9c-.5,1.5,0,2.6,1.4,2.8h20.6v20.1c0,1.7-1.3,2.5-2.9,1.9a18.43,18.43,0,0,0-4.9-1,6,6,0,0,0,0,12Z" transform="translate(-0.01 0.09)"/></g><g class="b"><path class="c" d="M101.4,130.2a17.71,17.71,0,0,1,4.9,1c1.6.6,2.9-.2,2.9-1.9V109.2h20.1c1.7,0,2.5,1.2,1.9,2.9a18.43,18.43,0,0,0-1,4.9,6,6,0,0,0,12,0,17.71,17.71,0,0,0-1-4.9c-.6-1.6.2-2.9,1.9-2.9h20.1v20.1c0,1.7,1.2,2.5,2.9,1.9a18.43,18.43,0,0,1,4.9-1,6,6,0,0,1,0,12,17.71,17.71,0,0,1-4.9-1c-1.6-.6-2.9.2-2.9,1.9v20.1H142.7c-1.4-.2-1.9-1.4-1.4-2.8a18.43,18.43,0,0,0,1-4.9,6,6,0,0,0-12,0,17.71,17.71,0,0,0,1,4.9c.5,1.5,0,2.6-1.4,2.8H109.3V143.1c0-1.7-1.2-2.5-2.9-1.9a18.43,18.43,0,0,1-4.9,1,6,6,0,0,1-6-6A5.87,5.87,0,0,1,101.4,130.2Z" transform="translate(-0.01 0.09)"/></g><g class="b"><path class="c" d="M166.2,141.2a18.43,18.43,0,0,0,4.9,1,6,6,0,1,0,0-12,17.71,17.71,0,0,0-4.9,1c-1.6.6-2.9-.2-2.9-1.9V109.2h20.1c1.7,0,2.5,1.2,1.9,2.9a18.43,18.43,0,0,0-1,4.9,6,6,0,1,0,12,0,17.71,17.71,0,0,0-1-4.9c-.6-1.6.2-2.9,1.9-2.9h20.1v20.2c0,1.7-1.3,2.4-2.9,1.8a18.43,18.43,0,0,0-4.9-1,6,6,0,0,0,0,12,17.71,17.71,0,0,0,4.9-1c1.6-.6,2.9.2,2.9,1.8v20.2H197.2c-1.7,0-2.5-1.2-1.9-2.9a18.43,18.43,0,0,0,1-4.9,6,6,0,0,0-12,0,17.71,17.71,0,0,0,1,4.9c.6,1.6-.2,2.9-1.9,2.9H163.3V143.1C163.3,141.4,164.5,140.7,166.2,141.2Z" transform="translate(-0.01 0.09)"/></g><g class="b"><polygon class="c" points="163.29 109.29 163.29 109.29 163.29 109.29 163.29 109.29 163.29 109.29 163.29 109.29"/></g><g class="b"><path class="c" d="M371.6,184.3a17.71,17.71,0,0,1,4.9,1c1.6.6,2.9-.2,2.9-1.9V163.3h20.1c1.7,0,2.5-1.2,1.9-2.9a18.43,18.43,0,0,1-1-4.9,6,6,0,1,1,12,0,17.71,17.71,0,0,1-1,4.9c-.6,1.6.2,2.9,1.9,2.9h20.1v20.1c0,1.7,1.2,2.5,2.9,1.9a18.43,18.43,0,0,1,4.9-1,6,6,0,0,1,0,12,17.71,17.71,0,0,1-4.9-1c-1.6-.6-2.9.2-2.9,1.9v20.1H413.3c-1.7,0-2.5,1.2-1.9,2.9a18.43,18.43,0,0,1,1,4.9,6,6,0,0,1-12,0,17.71,17.71,0,0,1,1-4.9c.6-1.6-.2-2.9-1.9-2.9H379.4V197.2c0-1.7-1.2-2.5-2.9-1.9a18.43,18.43,0,0,1-4.9,1,6,6,0,0,1-6-6A6,6,0,0,1,371.6,184.3Z" transform="translate(-0.01 0.09)"/></g><g class="b"><path class="d" d="M209.5,130.2a17.71,17.71,0,0,1,4.9,1c1.6.6,2.9-.2,2.9-1.9V109.2h20.1c1.7,0,2.5-1.2,1.9-2.9a18.43,18.43,0,0,1-1-4.9,6,6,0,0,1,12,0,17.71,17.71,0,0,1-1,4.9c-.6,1.6.2,2.9,1.9,2.9h20.1v20.2c0,1.7-1.3,2.4-2.9,1.8a18.43,18.43,0,0,0-4.9-1,6,6,0,0,0,0,12,17.71,17.71,0,0,0,4.9-1c1.6-.6,2.8.1,2.9,1.8v20.2H251.2c-1.7,0-2.5,1.2-1.9,2.9a18.43,18.43,0,0,1,1,4.9,6,6,0,0,1-12,0,17.71,17.71,0,0,1,1-4.9c.6-1.6-.2-2.9-1.9-2.9H217.3V143.1c0-1.7-1.2-2.5-2.9-1.9a18.43,18.43,0,0,1-4.9,1,6,6,0,0,1,0-12" transform="translate(-0.01 0.09)"/></g><g class="b"><path class="c" d="M209.5,130.2a17.71,17.71,0,0,1,4.9,1c1.6.6,2.9-.2,2.9-1.9V109.2h20.1c1.7,0,2.5-1.2,1.9-2.9a18.43,18.43,0,0,1-1-4.9,6,6,0,0,1,12,0,17.71,17.71,0,0,1-1,4.9c-.6,1.6.2,2.9,1.9,2.9h20.1v20.2c0,1.7-1.3,2.4-2.9,1.8a18.43,18.43,0,0,0-4.9-1,6,6,0,0,0,0,12,17.71,17.71,0,0,0,4.9-1c1.6-.6,2.8.1,2.9,1.8v20.2H251.2c-1.7,0-2.5,1.2-1.9,2.9a18.43,18.43,0,0,1,1,4.9,6,6,0,0,1-12,0,17.71,17.71,0,0,1,1-4.9c.6-1.6-.2-2.9-1.9-2.9H217.3V143.1c0-1.7-1.2-2.5-2.9-1.9a18.43,18.43,0,0,1-4.9,1,6,6,0,0,1,0-12Z" transform="translate(-0.01 0.09)"/></g><g class="b"><path class="c" d="M217.3,217.3V197.2c0-1.7,1.2-2.5,2.9-1.9a18.43,18.43,0,0,0,4.9,1,6,6,0,0,0,0-12,17.71,17.71,0,0,0-4.9,1c-1.6.6-2.9-.2-2.9-1.9V163.3h20.1c1.7,0,2.5,1.2,1.9,2.9a18.43,18.43,0,0,0-1,4.9,6,6,0,0,0,12,0,17.71,17.71,0,0,0-1-4.9c-.6-1.6.2-2.9,1.9-2.9h20.1v20.1c0,1.7,1.2,2.5,2.9,1.9a18.43,18.43,0,0,1,4.9-1,6,6,0,0,1,0,12,17.71,17.71,0,0,1-4.9-1c-1.6-.6-2.9.2-2.9,1.9v20.1H250.8c-1.5-.2-2.1-1.3-1.5-2.9a18.43,18.43,0,0,0,1-4.9,6,6,0,0,0-12,0,17.71,17.71,0,0,0,1,4.9c.5,1.5-.1,2.7-1.5,2.9Z" transform="translate(-0.01 0.09)"/></g><g class="b"><path class="c" d="M271.4,217.3V197.2c0-1.7,1.2-2.5,2.9-1.9a18.43,18.43,0,0,0,4.9,1,6,6,0,0,0,0-12,17.71,17.71,0,0,0-4.9,1c-1.6.6-2.9-.2-2.9-1.9V163.3h20.2c1.7,0,2.4,1.3,1.8,2.9a18.43,18.43,0,0,0-1,4.9,6,6,0,0,0,12,0,17.71,17.71,0,0,0-1-4.9c-.6-1.6.2-2.9,1.8-2.9h20.2v20.1c0,1.7,1.2,2.5,2.9,1.9a18.43,18.43,0,0,1,4.9-1,6,6,0,0,1,0,12,17.71,17.71,0,0,1-4.9-1c-1.6-.6-2.9.2-2.9,1.9v20.1H305.3c-1.7,0-2.5-1.2-1.9-2.9a18.43,18.43,0,0,0,1-4.9,6,6,0,1,0-12,0,17.71,17.71,0,0,0,1,4.9c.6,1.6-.2,2.9-1.9,2.9Z" transform="translate(-0.01 0.09)"/></g><g class="b"><path class="c" d="M155.4,304.4a17.71,17.71,0,0,0,4.9-1c1.6-.6,2.9.2,2.9,1.9v20.1H143.1c-1.7,0-2.4-1.3-1.9-2.9a18.43,18.43,0,0,0,1-4.9,6,6,0,0,0-12,0,17.71,17.71,0,0,0,1,4.9c.6,1.6-.2,2.9-1.9,2.9H109.2V305.3c0-1.7-1.2-2.5-2.9-1.9a18.43,18.43,0,0,1-4.9,1,6,6,0,0,1,0-12,17.71,17.71,0,0,1,4.9,1c1.6.6,2.9-.2,2.9-1.9V271.4h20.1c1.7,0,2.5-1.2,1.9-2.9a18.43,18.43,0,0,1-1-4.9,6,6,0,0,1,12,0,17.71,17.71,0,0,1-1,4.9c-.6,1.6.2,2.9,1.9,2.9h20.1v20.1c0,1.7-1.2,2.5-2.9,1.9a18.43,18.43,0,0,0-4.9-1,6,6,0,1,0,0,12Z" transform="translate(-0.01 0.09)"/></g><g class="b"><path class="d" d="M171.1,250.3a17.71,17.71,0,0,1-4.9-1c-1.6-.6-2.9.2-2.9,1.9v20.1H143.1c-1.7,0-2.4-1.3-1.8-2.9a18.43,18.43,0,0,0,1-4.9,6,6,0,0,0-12,0,17.71,17.71,0,0,0,1,4.9c.6,1.6-.1,2.8-1.8,2.9H109.3V251.2c0-1.7-1.2-2.5-2.9-1.9a18.43,18.43,0,0,1-4.9,1,6,6,0,0,1,0-12,17.71,17.71,0,0,1,4.9,1c1.6.6,2.9-.2,2.9-1.9V217.3h20.1c1.7,0,2.5-1.2,1.9-2.9a18.43,18.43,0,0,1-1-4.9,6,6,0,0,1,12,0,17.71,17.71,0,0,1-1,4.9c-.6,1.6.2,2.9,1.9,2.9h20.1v20.1c0,1.7,1.2,2.5,2.9,1.9a18.43,18.43,0,0,1,4.9-1,6,6,0,0,1,0,12" transform="translate(-0.01 0.09)"/></g><g class="b"><path class="c" d="M171.1,250.3a17.71,17.71,0,0,1-4.9-1c-1.6-.6-2.9.2-2.9,1.9v20.1H143.1c-1.7,0-2.4-1.3-1.8-2.9a18.43,18.43,0,0,0,1-4.9,6,6,0,0,0-12,0,17.71,17.71,0,0,0,1,4.9c.6,1.6-.1,2.8-1.8,2.9H109.3V251.2c0-1.7-1.2-2.5-2.9-1.9a18.43,18.43,0,0,1-4.9,1,6,6,0,0,1,0-12,17.71,17.71,0,0,1,4.9,1c1.6.6,2.9-.2,2.9-1.9V217.3h20.1c1.7,0,2.5-1.2,1.9-2.9a18.43,18.43,0,0,1-1-4.9,6,6,0,0,1,12,0,17.71,17.71,0,0,1-1,4.9c-.6,1.6.2,2.9,1.9,2.9h20.1v20.1c0,1.7,1.2,2.5,2.9,1.9a18.43,18.43,0,0,1,4.9-1,6,6,0,0,1,0,12Z" transform="translate(-0.01 0.09)"/></g><g class="b"><path class="c" d="M279.2,304.4a17.71,17.71,0,0,1-4.9-1c-1.6-.6-2.9.2-2.9,1.9v20.2H251.3c-1.7,0-2.5,1.2-1.9,2.9a18.43,18.43,0,0,1,1,4.9,6,6,0,0,1-12,0,17.71,17.71,0,0,1,1-4.9c.6-1.6-.2-2.9-1.9-2.9H217.4V305.4c0-1.7,1.3-2.4,2.9-1.9a18.43,18.43,0,0,0,4.9,1,6,6,0,0,0,0-12,17.71,17.71,0,0,0-4.9,1c-1.6.6-2.9-.2-2.9-1.9V271.5h20.1c1.7,0,2.5-1.2,1.9-2.9a18.43,18.43,0,0,1-1-4.9,6,6,0,0,1,12,0,17.71,17.71,0,0,1-1,4.9c-.6,1.6.2,2.9,1.9,2.9h20.1v20.2c0,1.7,1.3,2.4,2.9,1.9a18.43,18.43,0,0,1,4.9-1,5.9,5.9,0,1,1,0,11.8Z" transform="translate(-0.01 0.09)"/></g><g class="b"><path class="c" d="M249.4,268.5a18.43,18.43,0,0,0,1-4.9,6,6,0,0,0-12,0,17.71,17.71,0,0,0,1,4.9c.6,1.6-.2,2.9-1.9,2.9H217.4V251.3c0-1.7-1.2-2.5-2.9-1.9a18.43,18.43,0,0,1-4.9,1,6,6,0,0,1,0-12,17.71,17.71,0,0,1,4.9,1c1.6.6,2.9-.2,2.9-1.9V217.4h20.5c1.5-.2,2.1-1.3,1.5-2.9a18.43,18.43,0,0,1-1-4.9,6,6,0,1,1,12,0,17.71,17.71,0,0,1-1,4.9c-.5,1.5.1,2.7,1.5,2.9h20.5v20.1c0,1.7-1.3,2.4-2.9,1.9a18.43,18.43,0,0,0-4.9-1,6,6,0,0,0,0,12,17.71,17.71,0,0,0,4.9-1c1.6-.6,2.9.2,2.9,1.9v20.2H251.3C249.5,271.3,248.8,270.1,249.4,268.5Z" transform="translate(-0.01 0.09)"/></g><g class="b"><path class="c" d="M359.3,271.4h20.1v20.1c0,1.7-1.2,2.5-2.9,1.9a18.43,18.43,0,0,0-4.9-1,6,6,0,1,0,0,12,17.71,17.71,0,0,0,4.9-1c1.6-.6,2.9.2,2.9,1.9v20.1H359.2c-1.7,0-2.4-1.3-1.8-2.9a18.43,18.43,0,0,0,1-4.9,6,6,0,1,0-12,0,17.71,17.71,0,0,0,1,4.9c.6,1.6-.2,2.9-1.8,2.9H325.4V305.2c0-1.7,1.3-2.4,2.9-1.8a18.43,18.43,0,0,0,4.9,1,6,6,0,1,0,0-12,17.71,17.71,0,0,0-4.9,1c-1.6.6-2.9-.2-2.9-1.8V271.4h20.1c1.7,0,2.4-1.3,1.9-2.9a18.43,18.43,0,0,1-1-4.9,6,6,0,1,1,12,0,17.71,17.71,0,0,1-1,4.9C356.9,270.1,357.6,271.3,359.3,271.4Z" transform="translate(-0.01 0.09)"/></g><g class="b"><path class="c" d="M387.3,250.3a17.71,17.71,0,0,1-4.9-1c-1.6-.6-2.9.2-2.9,1.9v20.1H359.3c-1.7,0-2.4-1.3-1.8-2.9a18.43,18.43,0,0,0,1-4.9,6,6,0,0,0-12,0,17.71,17.71,0,0,0,1,4.9,2,2,0,0,1-1.8,2.9H325.5V251.2c0-1.7-1.2-2.5-2.9-1.9a18.43,18.43,0,0,1-4.9,1,6,6,0,0,1,0-12,17.71,17.71,0,0,1,4.9,1c1.6.6,2.9-.2,2.9-1.9V217.3h20.1c1.7,0,2.5-1.2,1.9-2.9a18.43,18.43,0,0,1-1-4.9,6,6,0,1,1,12,0,17.71,17.71,0,0,1-1,4.9c-.6,1.6.2,2.9,1.9,2.9h20.1v20.1c0,1.7,1.2,2.5,2.9,1.9a18.43,18.43,0,0,1,4.9-1,6,6,0,0,1,6,6A6,6,0,0,1,387.3,250.3Z" transform="translate(-0.01 0.09)"/></g><g class="b"><path class="d" d="M487.6,217.3v20.1c0,1.7-1.2,2.5-2.9,1.9a18.43,18.43,0,0,0-4.9-1,6,6,0,0,0,0,12,17.71,17.71,0,0,0,4.9-1c1.6-.6,2.9.2,2.9,1.9v20.1H467.5c-1.7,0-2.4-1.3-1.9-2.9a18.43,18.43,0,0,0,1-4.9,6,6,0,0,0-12,0,17.71,17.71,0,0,0,1,4.9c.6,1.6-.2,2.9-1.9,2.9H433.6V251.2c0-1.7,1.2-2.5,2.9-1.9a18.43,18.43,0,0,0,4.9,1,6,6,0,0,0,0-12,17.71,17.71,0,0,0-4.9,1c-1.6.6-2.9-.2-2.9-1.9V217.3h20c1.7,0,2.5-1.2,1.9-2.9a18.43,18.43,0,0,1-1-4.9,6,6,0,1,1,12,0,17.71,17.71,0,0,1-1,4.9c-.6,1.6.2,2.9,1.9,2.9Z" transform="translate(-0.01 0.09)"/></g><g class="b"><path class="c" d="M487.6,217.3v20.1c0,1.7-1.2,2.5-2.9,1.9a18.43,18.43,0,0,0-4.9-1,6,6,0,0,0,0,12,17.71,17.71,0,0,0,4.9-1c1.6-.6,2.9.2,2.9,1.9v20.1H467.5c-1.7,0-2.4-1.3-1.9-2.9a18.43,18.43,0,0,0,1-4.9,6,6,0,0,0-12,0,17.71,17.71,0,0,0,1,4.9c.6,1.6-.2,2.9-1.9,2.9H433.6V251.2c0-1.7,1.2-2.5,2.9-1.9a18.43,18.43,0,0,0,4.9,1,6,6,0,0,0,0-12,17.71,17.71,0,0,0-4.9,1c-1.6.6-2.9-.2-2.9-1.9V217.3h20c1.7,0,2.5-1.2,1.9-2.9a18.43,18.43,0,0,1-1-4.9,6,6,0,1,1,12,0,17.71,17.71,0,0,1-1,4.9c-.6,1.6.2,2.9,1.9,2.9Z" transform="translate(-0.01 0.09)"/></g><g class="b"><path class="c" d="M63,304.4a17.71,17.71,0,0,1-4.9-1c-1.6-.6-2.9.2-2.9,1.9v20.1H35.1c-1.7,0-2.4-1.3-1.9-2.9a18.43,18.43,0,0,0,1-4.9,6,6,0,1,0-12,0,17.71,17.71,0,0,0,1,4.9c.6,1.6-.2,2.9-1.9,2.9H1.2V271.3H21.3c1.7,0,2.5-1.2,1.9-2.9a18.43,18.43,0,0,1-1-4.9,6,6,0,0,1,12,0,17.71,17.71,0,0,1-1,4.9c-.6,1.6.2,2.9,1.9,2.9H55.2v20.1c0,1.7,1.2,2.5,2.9,1.9a18.43,18.43,0,0,1,4.9-1,6.05,6.05,0,0,1,0,12.1Z" transform="translate(-0.01 0.09)"/></g><g class="b"><path class="c" d="M63,250.3a17.71,17.71,0,0,1-4.9-1c-1.6-.6-2.9.2-2.9,1.9v20.1H35.1c-1.7,0-2.5-1.2-1.9-2.9a18.43,18.43,0,0,0,1-4.9,6,6,0,0,0-12,0,17.71,17.71,0,0,0,1,4.9c.6,1.6-.2,2.9-1.9,2.9H1.2v-54H21.3c1.7,0,2.5,1.2,1.9,2.9a18.43,18.43,0,0,0-1,4.9,6,6,0,1,0,12,0,17.71,17.71,0,0,0-1-4.9c-.6-1.6.2-2.9,1.9-2.9H55.2v20.1c0,1.7,1.2,2.5,2.9,1.9a18.43,18.43,0,0,1,4.9-1,6,6,0,1,1,0,12Z" transform="translate(-0.01 0.09)"/></g><g class="b"><path class="c" d="M101.4,250.3a17.71,17.71,0,0,0,4.9-1c1.6-.6,2.9.2,2.9,1.9v20.1H87.7c-1.7,0-2.4,1.3-1.8,2.9a18.43,18.43,0,0,1,1,4.9,6,6,0,0,1-12,0,17.71,17.71,0,0,1,1-4.9c.6-1.6-.2-2.9-1.8-2.9H55.3V251.2c0-1.7,1.2-2.5,2.9-1.9a18.43,18.43,0,0,0,4.9,1,6,6,0,0,0,0-12,17.71,17.71,0,0,0-4.9,1c-1.6.6-2.9-.2-2.9-1.9V217.3H75.4c1.7,0,2.5,1.2,1.9,2.9a18.43,18.43,0,0,0-1,4.9,6,6,0,0,0,12,0,17.71,17.71,0,0,0-1-4.9c-.6-1.6.2-2.9,1.9-2.9h20.1v20.1c0,1.7-1.3,2.4-2.9,1.9a18.43,18.43,0,0,0-4.9-1,6,6,0,0,0-6,6A5.87,5.87,0,0,0,101.4,250.3Z" transform="translate(-0.01 0.09)"/></g><g class="b"><path class="c" d="M63,292.4a17.71,17.71,0,0,0-4.9,1c-1.6.6-2.9-.2-2.9-1.9V271.4H74.1c1.6.1,2.3,1.3,1.8,2.9a18.43,18.43,0,0,0-1,4.9,6,6,0,0,0,12,0,17.71,17.71,0,0,0-1-4.9c-.5-1.6.1-2.8,1.8-2.9h21.6v20.1c0,1.7-1.2,2.5-2.9,1.9a18.43,18.43,0,0,0-4.9-1,6,6,0,0,0,0,12,17.71,17.71,0,0,0,4.9-1c1.6-.6,2.9.2,2.9,1.9v20.1H89.2c-1.7,0-2.5,1.2-1.9,2.9a18.43,18.43,0,0,1,1,4.9,6,6,0,0,1-12,0,17.71,17.71,0,0,1,1-4.9c.6-1.6-.2-2.9-1.9-2.9H55.3V305.3c0-1.7,1.2-2.5,2.9-1.9a18.43,18.43,0,0,0,4.9,1,6,6,0,0,0,6-6A6.1,6.1,0,0,0,63,292.4Z" transform="translate(-0.01 0.09)"/></g><g class="b"><path class="c" d="M209.5,250.3a17.71,17.71,0,0,0,4.9-1c1.6-.6,2.9.2,2.9,1.8v20.2H197.1c-1.7,0-2.4,1.3-1.8,2.9a18.43,18.43,0,0,1,1,4.9,6,6,0,0,1-12,0,17.71,17.71,0,0,1,1-4.9c.6-1.6-.2-2.9-1.8-2.9H163.3V251.2c0-1.7,1.2-2.5,2.9-1.9a18.43,18.43,0,0,0,4.9,1,6,6,0,0,0,0-12,17.71,17.71,0,0,0-4.9,1c-1.6.6-2.9-.2-2.9-1.9V217.3h20.2c1.7,0,2.4,1.3,1.8,2.9a18.43,18.43,0,0,0-1,4.9,6,6,0,1,0,12,0,17.71,17.71,0,0,0-1-4.9c-.6-1.6.2-2.9,1.8-2.9h20.2v20.2c0,1.7-1.3,2.4-2.9,1.8a18.43,18.43,0,0,0-4.9-1,6,6,0,0,0,0,12Z" transform="translate(-0.01 0.09)"/></g><g class="b"><path class="c" d="M225.1,304.4a17.71,17.71,0,0,1-4.9-1c-1.6-.6-2.9.2-2.9,1.9v20.1H197.2c-1.7,0-2.5,1.2-1.9,2.9a18.43,18.43,0,0,1,1,4.9,6,6,0,0,1-12,0,17.71,17.71,0,0,1,1-4.9c.6-1.6-.2-2.9-1.9-2.9H163.3V305.3c0-1.7-1.2-2.5-2.9-1.9a18.43,18.43,0,0,1-4.9,1,6,6,0,1,1,0-12,17.71,17.71,0,0,1,4.9,1c1.6.6,2.9-.2,2.9-1.9V271.4h20.3c1.6.1,2.3,1.3,1.7,2.9a18.43,18.43,0,0,0-1,4.9,6,6,0,0,0,12,0,17.71,17.71,0,0,0-1-4.9c-.5-1.6.1-2.8,1.7-2.9h20.3v20.1c0,1.7,1.2,2.5,2.9,1.9a18.43,18.43,0,0,1,4.9-1,6,6,0,0,1,6,6A5.89,5.89,0,0,1,225.1,304.4Z" transform="translate(-0.01 0.09)"/></g><g class="b"><path class="c" d="M317.6,250.3a17.71,17.71,0,0,0,4.9-1c1.6-.6,2.9.2,2.9,1.9v20.1H304.7c-1.7.1-2.3,1.3-1.8,2.9a18.43,18.43,0,0,1,1,4.9,6,6,0,0,1-12,0,17.71,17.71,0,0,1,1-4.9c.6-1.6-.1-2.8-1.8-2.9H271.4V251.1c0-1.7-1.3-2.4-2.9-1.9a18.43,18.43,0,0,1-4.9,1,6,6,0,0,1,0-12,17.71,17.71,0,0,1,4.9,1c1.6.6,2.9-.2,2.9-1.9V217.2h20.1c1.7,0,2.5-1.2,1.9-2.9a18.43,18.43,0,0,1-1-4.9,6,6,0,0,1,12,0,17.71,17.71,0,0,1-1,4.9c-.6,1.6.2,2.9,1.9,2.9h20.1v20.1c0,1.7-1.3,2.4-2.9,1.9a18.43,18.43,0,0,0-4.9-1,6.05,6.05,0,0,0,0,12.1Z" transform="translate(-0.01 0.09)"/></g><g class="b"><path class="c" d="M333.2,304.4a17.71,17.71,0,0,1-4.9-1c-1.6-.6-2.9.2-2.9,1.9v20.1H304.9c-1.5.2-2.1,1.3-1.5,2.9a18.43,18.43,0,0,1,1,4.9,6,6,0,0,1-12,0,17.71,17.71,0,0,1,1-4.9c.5-1.5-.1-2.7-1.5-2.9H271.4V305.3c0-1.7,1.3-2.4,2.9-1.9a18.43,18.43,0,0,0,4.9,1,6,6,0,1,0,0-12,17.71,17.71,0,0,0-4.9,1c-1.6.6-2.9-.2-2.9-1.9V271.3h19.8c1.6.1,2.3,1.3,1.7,2.9a18.43,18.43,0,0,0-1,4.9,6,6,0,0,0,12,0,17.71,17.71,0,0,0-1-4.9c-.5-1.6.1-2.8,1.7-2.9h20.8v20.1c0,1.7,1.2,2.5,2.9,1.9a18.43,18.43,0,0,1,4.9-1,6,6,0,0,1,6,6A5.92,5.92,0,0,1,333.2,304.4Z" transform="translate(-0.01 0.09)"/></g><g class="b"><path class="c" d="M441.4,250.3a17.71,17.71,0,0,1-4.9-1c-1.6-.6-2.9.2-2.9,1.9v20.1H413.4c-1.7,0-2.4,1.3-1.8,2.9a18.43,18.43,0,0,1,1,4.9,6,6,0,0,1-12,0,17.71,17.71,0,0,1,1-4.9c.6-1.6-.1-2.8-1.8-2.9H379.6V251.2c0-1.7,1.2-2.5,2.9-1.9a18.43,18.43,0,0,0,4.9,1,6,6,0,0,0,0-12,17.71,17.71,0,0,0-4.9,1c-1.6.6-2.9-.2-2.9-1.9V217.3h20.1c1.7,0,2.4,1.3,1.9,2.9a18.43,18.43,0,0,0-1,4.9,6,6,0,0,0,12,0,17.71,17.71,0,0,0-1-4.9c-.6-1.6.2-2.9,1.9-2.9h20.1v20.1c0,1.7,1.2,2.5,2.9,1.9a18.43,18.43,0,0,1,4.9-1,6,6,0,0,1,6,6A6,6,0,0,1,441.4,250.3Z" transform="translate(-0.01 0.09)"/></g><g class="b"><line class="e" x1="271.39" y1="539.79" x2="271.39" y2="538.79"/></g></svg>