<?xml version="1.0" encoding="iso-8859-1"?>
<!-- Generator: Adobe Illustrator 15.1.0, SVG Export Plug-In . SVG Version: 6.00 Build 0)  -->
<!DOCTYPE svg PUBLIC "-//W3C//DTD SVG 1.1//EN" "http://www.w3.org/Graphics/SVG/1.1/DTD/svg11.dtd">
<svg version="1.1" id="Layer_1" xmlns="http://www.w3.org/2000/svg" xmlns:xlink="http://www.w3.org/1999/xlink" x="0px" y="0px"
	 width="133.015px" height="55.385px" viewBox="0 0 133.015 55.385" style="enable-background:new 0 0 133.015 55.385;"
	 xml:space="preserve">
<g>
	<g>
		<path style="fill:#00497B;" d="M0.316,13.559c0-1.519,0.679-2.277,2.197-2.277h13.982v3.156c0,1.518-0.759,2.237-2.277,2.237
			h-7.51v4.595h8.389v5.193H6.708v4.994h9.987v3.156c0,1.519-0.759,2.237-2.277,2.237H2.513c-1.519,0-2.197-0.759-2.197-2.277
			V13.559z M19.295,13.559c0-1.519,0.679-2.277,2.197-2.277h8.31c5.833,0,9.189,2.677,9.189,7.71c0,3.476-1.319,5.712-4.475,6.991
			l4.994,9.748c0.16,0.359,0.36,0.719,0.36,1.118h-5.514c-1.159,0-1.638,0-2.197-1.158l-4.475-9.229h-1.997V36.85h-6.392V13.559z
			 M25.688,16.675v4.595h3.635c1.838,0,3.276-0.24,3.276-2.277c0-1.998-1.438-2.317-3.276-2.317H25.688z M49.462,11.082
			c5.313,0,8.07,0.6,8.07,3.076v2.517H50.26c-1.957,0-2.517,0.52-2.517,1.558c0,3.076,11.107,2.437,11.107,11.066
			c0,4.115-2.357,7.75-9.548,7.75c-4.715,0-8.43-0.759-8.43-3.076v-2.517h8.59c1.758,0,2.597-0.56,2.597-1.798
			c0-3.355-11.067-2.717-11.067-11.585C40.992,14.158,43.589,11.082,49.462,11.082z M76.431,11.282v3.236
			c0,1.478-0.759,2.157-2.238,2.157h-3.155V36.85h-6.393V16.675h-5.393v-3.236c0-1.479,0.759-2.157,2.238-2.157H76.431z
			 M78.432,13.559c0-1.519,0.679-2.277,2.198-2.277h13.981v3.156c0,1.518-0.759,2.237-2.278,2.237h-7.51v4.595h8.39v5.193h-8.39
			v4.994h9.988v3.156c0,1.519-0.759,2.237-2.277,2.237H80.63c-1.52,0-2.198-0.759-2.198-2.277V13.559z M5.035,42.397
			c2.358,0,3.018,0.22,3.018,1.099v0.6H5.035c-2.198,0-3.077,1.119-3.077,4.796s0.879,4.794,3.077,4.794h3.018v0.601
			c0,0.879-0.66,1.099-3.018,1.099C1.638,55.385,0,53.367,0,48.892C0,44.416,1.638,42.397,5.035,42.397z M15.304,55.286
			c-0.64,0-0.879-0.34-0.879-0.84v-0.319c-0.819,0.919-1.918,1.259-2.798,1.259c-1.798,0-2.917-1.099-2.917-2.777
			c0-2.518,2.638-3.157,5.715-3.297v-0.939c0-1.359-0.919-1.738-2.139-1.738H9.41v-0.52c0-0.879,1.039-0.919,3.137-0.919
			c2.298,0,3.657,0.999,3.657,3.097v6.994H15.304z M14.425,50.45c-2.738,0.06-3.837,0.66-3.837,1.938
			c0,1.098,0.779,1.498,1.798,1.498c0.76,0,1.519-0.34,2.039-0.819V50.45z M18.42,55.286v-9.991h0.899
			c0.6,0,0.859,0.479,0.899,1.239c0.779-1.04,1.818-1.339,2.578-1.339c0.34,0,0.7,0.08,0.7,0.5v1.279h-0.5
			c-1.459,0-2.198,0.359-2.778,0.839v7.473H18.42z M31.586,55.286h-0.879c-0.66,0-0.919-0.34-0.919-0.84v-0.319
			c-0.56,0.659-1.458,1.259-2.598,1.259c-2.358,0-3.457-1.938-3.457-5.095c0-3.157,1.099-5.096,3.457-5.096
			c1.139,0,2.038,0.6,2.598,1.259v-3.517c0-0.5,0.26-0.839,0.899-0.839h0.899V55.286z M27.79,53.907c0.8,0,1.479-0.36,1.999-0.84
			v-5.594c-0.52-0.479-1.199-0.839-1.999-0.839c-1.578,0-2.198,1.318-2.198,3.657C25.592,52.628,26.211,53.907,27.79,53.907z
			 M42.354,42.397c2.358,0,3.017,0.22,3.017,1.099v0.6h-3.017c-2.198,0-3.077,1.119-3.077,4.796s0.879,4.794,3.077,4.794h3.017
			v0.601c0,0.879-0.659,1.099-3.017,1.099c-3.397,0-5.036-2.019-5.036-6.494C37.318,44.416,38.957,42.397,42.354,42.397z
			 M48.287,55.286h-1.798V43.037c0-0.6,0.22-0.939,0.819-0.939h0.979V55.286z M57.978,45.295v9.991h-0.898
			c-0.64,0-0.88-0.34-0.88-0.82v-0.339c-0.839,0.919-1.858,1.259-2.798,1.259c-1.958,0-2.917-1.199-2.917-3.057v-7.034h1.798v6.954
			c0,1.179,0.68,1.678,1.818,1.678c0.74,0,1.539-0.359,2.099-0.84v-7.792H57.978z M64.569,55.385c-1.138,0-2.038-0.6-2.597-1.259
			v0.319c0,0.5-0.26,0.84-0.919,0.84h-0.88V43.057c0-0.56,0.179-0.959,0.819-0.959h0.979v4.356c0.559-0.659,1.458-1.259,2.597-1.259
			c2.359,0,3.457,1.938,3.457,5.096C68.026,53.447,66.928,55.385,64.569,55.385z M63.97,46.634c-0.779,0-1.479,0.359-1.998,0.839
			v5.594c0.519,0.479,1.218,0.84,1.998,0.84c1.559,0,2.199-1.278,2.199-3.616C66.169,47.952,65.529,46.634,63.97,46.634z"/>
		<path style="fill:#E30613;" d="M117.324,0c1.276,0,2.394,0.476,3.321,1.424c0.931,0.943,1.405,2.095,1.405,3.396
			c0,1.332-0.465,2.468-1.394,3.411c-0.93,0.947-2.057,1.421-3.333,1.421c-1.303,0-2.423-0.474-3.335-1.421
			c-0.926-0.943-1.392-2.08-1.392-3.411c0-1.301,0.466-2.441,1.379-3.383C114.901,0.486,116.021,0,117.324,0L117.324,0z
			 M133.015,19.117v-2.931c0-2.771-2.248-5.025-5.021-5.025H106.65c-2.775,0-5.021,2.254-5.021,5.025v11.04h23.81v1.674h-23.81
			v2.929c0,2.772,2.245,5.021,5.021,5.021h21.344c2.773,0,5.021-2.249,5.021-5.021V20.79h-23.808v-1.673H133.015z"/>
	</g>
</g>
</svg>
